<svg width="159" height="159" viewBox="0 0 159 159" fill="none" xmlns="http://www.w3.org/2000/svg">
<rect width="159" height="159" rx="79.5" fill="#FF2E00" fill-opacity="0.9"/>
<path d="M130.292 73.062C130.292 68.8322 128.383 64.8682 125.13 62.2298C125.271 61.5544 125.342 60.9054 125.342 60.2668C125.342 54.9981 121.446 50.6222 116.384 49.8685C116.5 49.2633 116.555 48.6695 116.555 48.0781C116.555 42.4688 112.135 37.8858 106.597 37.5946C106.506 37.5797 106.414 37.567 106.318 37.567C106.272 37.567 106.227 37.5728 106.18 37.5739C106.134 37.5728 106.089 37.567 106.042 37.567C105.515 37.567 104.985 37.6142 104.424 37.712C103.451 32.5514 98.9552 28.7083 93.5656 28.7083C87.4545 28.7083 82.4826 33.6802 82.4826 39.7924V115.64C82.4826 123.376 88.7754 129.668 96.51 129.668C101.642 129.668 106.3 126.891 108.76 122.481C109.311 122.6 109.84 122.674 110.372 122.709C113.712 122.921 116.965 121.827 119.492 119.61C122.019 117.393 123.531 114.324 123.749 110.969C123.84 109.571 123.684 108.168 123.285 106.783C127.653 103.686 130.22 98.7833 130.22 93.411C130.22 89.5161 128.818 85.7765 126.256 82.7975C128.834 80.1879 130.292 76.6968 130.292 73.062ZM126.771 93.4133C126.771 97.4221 124.95 101.1 121.829 103.561C119.518 99.8834 115.42 97.5349 110.982 97.5349C110.029 97.5349 109.256 98.3081 109.256 99.2609C109.256 100.214 110.029 100.987 110.982 100.987C114.826 100.987 118.327 103.395 119.706 106.979C120.178 108.231 120.387 109.498 120.305 110.747C120.146 113.181 119.05 115.408 117.216 117.016C115.382 118.626 113.026 119.426 110.597 119.265C109.914 119.22 109.207 119.073 108.373 118.802C107.522 118.524 106.6 118.945 106.249 119.769C104.586 123.685 100.763 126.217 96.5089 126.217C90.6775 126.217 85.9334 121.473 85.9334 115.641V39.7935C85.9334 35.5856 89.3565 32.1613 93.5644 32.1613C97.4743 32.1613 100.691 35.1093 101.11 38.9593C97.9449 40.7727 95.8036 44.1774 95.8036 48.0793C95.8036 49.0331 96.5768 49.8052 97.5295 49.8052C98.4822 49.8052 99.2555 49.0331 99.2555 48.0793C99.2555 44.2327 102.35 41.1006 106.178 41.0258C110.006 41.1006 113.1 44.2327 113.1 48.0781C113.1 48.7938 112.965 49.5348 112.687 50.346C112.621 50.537 112.59 50.7372 112.594 50.9386C112.595 50.9858 112.597 51.0295 112.602 51.0709C112.595 51.0951 112.59 51.1112 112.59 51.1112C112.454 51.6462 112.583 52.2147 112.937 52.6393C113.29 53.0638 113.817 53.294 114.376 53.2583C114.496 53.2502 114.615 53.2353 114.827 53.2054C118.72 53.2054 121.887 56.3731 121.887 60.2657C121.887 60.9239 121.769 61.5993 121.517 62.3932C121.283 63.1239 121.561 63.9213 122.197 64.3493C124.998 66.2352 126.695 69.3304 126.816 72.6822C126.816 72.6868 126.814 72.6914 126.814 72.696C126.814 78.4838 122.106 83.1933 116.318 83.1933C110.531 83.1933 105.821 78.4838 105.821 72.696C105.821 71.7422 105.048 70.9701 104.095 70.9701C103.142 70.9701 102.369 71.7422 102.369 72.696C102.369 80.3881 108.626 86.6452 116.318 86.6452C118.882 86.6452 121.278 85.9376 123.344 84.726C125.553 87.1308 126.771 90.2065 126.771 93.4133Z" fill="white"/>
<path d="M66.5363 28.709C61.1467 28.709 56.6523 32.5521 55.68 37.7127C55.1185 37.6149 54.5881 37.5678 54.0611 37.5678C54.015 37.5678 53.9702 37.5735 53.923 37.5747C53.877 37.5735 53.8321 37.5678 53.7849 37.5678C53.6894 37.5678 53.5974 37.5804 53.5065 37.5954C47.9684 37.8865 43.5488 42.4695 43.5488 48.0788C43.5488 48.6703 43.6052 49.264 43.7203 49.8692C38.6586 50.6229 34.7625 54.9988 34.7625 60.2676C34.7625 60.905 34.8327 61.554 34.9743 62.2306C31.7214 64.869 29.8125 68.8329 29.8125 73.0627C29.8125 76.6975 31.2692 80.1886 33.8455 82.8005C31.283 85.7795 29.8804 89.5191 29.8804 93.414C29.8804 98.7864 32.4475 103.688 36.8153 106.786C36.416 108.171 36.2607 109.574 36.3527 110.973C36.5714 114.327 38.0821 117.396 40.6089 119.613C43.1358 121.831 46.3794 122.926 49.7289 122.712C50.2525 122.677 50.7864 122.601 51.3398 122.483C53.7999 126.894 58.4577 129.671 63.5895 129.671C71.3241 129.671 77.617 123.378 77.617 115.643V39.7931C77.6193 33.6809 72.6474 28.709 66.5363 28.709ZM74.1673 115.641C74.1673 121.472 69.4233 126.216 63.5918 126.216C59.3379 126.216 55.5143 123.685 53.8528 119.768C53.5755 119.116 52.9403 118.717 52.2638 118.717C52.0866 118.717 51.9059 118.743 51.7287 118.802C50.8957 119.072 50.1892 119.219 49.5045 119.264C47.0663 119.424 44.7202 118.625 42.8872 117.016C41.0531 115.407 39.9565 113.181 39.7977 110.746C39.7103 109.411 39.9416 108.058 40.4858 106.725C40.4939 106.705 40.4916 106.683 40.4985 106.664C42.0426 103.147 45.3599 100.965 49.2399 100.965C50.1938 100.965 50.9659 100.191 50.9659 99.2386C50.9659 98.2858 50.1938 97.5126 49.2399 97.5126C44.7087 97.5126 40.6089 99.8219 38.2536 103.541C35.1457 101.08 33.3323 97.4114 33.3323 93.4129C33.3323 90.2061 34.552 87.1304 36.7589 84.7267C38.8255 85.9383 41.2222 86.646 43.7859 86.646C51.4779 86.646 57.7351 80.3888 57.7351 72.6968C57.7351 71.7429 56.963 70.9708 56.0091 70.9708C55.0552 70.9708 54.2831 71.7429 54.2831 72.6968C54.2831 78.4845 49.5747 83.1941 43.7859 83.1941C37.997 83.1941 33.2886 78.4845 33.2886 72.6968C33.2886 72.6945 33.2874 72.6922 33.2874 72.6899C33.4059 69.3358 35.1031 66.2382 37.9049 64.35C38.5412 63.922 38.8174 63.1258 38.585 62.3951C38.3318 61.6 38.2145 60.9246 38.2145 60.2664C38.2145 56.3819 41.3684 53.2188 45.3427 53.2188C45.3507 53.2188 45.3599 53.2188 45.368 53.2188C45.4865 53.2349 45.605 53.2498 45.7258 53.2579C46.2839 53.2924 46.8166 53.0611 47.1687 52.6342C47.522 52.2062 47.6486 51.6355 47.507 51.0993C47.507 51.0981 47.5036 51.0832 47.4978 51.0636C47.5013 51.0233 47.5047 50.9865 47.5059 50.9543C47.5116 50.7472 47.4806 50.5412 47.4127 50.3456C47.1342 49.5321 46.9996 48.7899 46.9996 48.0765C46.9996 44.2311 50.0925 41.0979 53.9218 41.0243C57.7512 41.0991 60.8441 44.2311 60.8441 48.0777C60.8441 49.0316 61.6162 49.8037 62.57 49.8037C63.5239 49.8037 64.296 49.0316 64.296 48.0777C64.296 44.1759 62.1547 40.7711 58.9893 38.9577C59.4081 35.1077 62.6253 32.1598 66.5352 32.1598C70.743 32.1598 74.1662 35.5841 74.1662 39.7919L74.1673 115.641Z" fill="white"/>
</svg>
