<svg width="31" height="30" viewBox="0 0 31 30" fill="none" xmlns="http://www.w3.org/2000/svg">
<path d="M30.0234 28.1797L21.1719 19.3203C22.7969 17.2891 23.7734 14.7031 23.7734 11.8906C23.7734 5.32031 18.4531 0 11.8984 0C5.33594 0 0.0234375 5.32812 0.0234375 11.8906C0.0234375 18.4531 5.34375 23.7812 11.8984 23.7812C14.7266 23.7812 17.3203 22.7891 19.3594 21.1406L28.2031 30L30.0234 28.1797ZM4.38281 19.4219C2.375 17.4141 1.27344 14.7422 1.27344 11.8984C1.27344 9.05469 2.38281 6.38281 4.38281 4.375C6.38281 2.36719 9.0625 1.25 11.8984 1.25C14.7344 1.25 17.4062 2.35938 19.4141 4.36719C21.4219 6.375 22.5234 9.04688 22.5234 11.8906C22.5234 14.7344 21.4141 17.4062 19.4141 19.4141C17.4062 21.4219 14.7344 22.5312 11.8984 22.5312C9.0625 22.5391 6.39062 21.4297 4.38281 19.4219Z" fill="black"/>
</svg>
